<svg xmlns="http://www.w3.org/2000/svg" width="780" height="270" style="background:#0B100D;font-family:monospace"><text x="40" y="24" font-size="13" fill="#C9DCD1">Lift du taux de vente par décile de Score V (D1 = top 10 %) — cible ≥ 2×</text><rect x="40" y="56" width="60" height="164" fill="#FF8A50"/><text x="70.0" y="236" text-anchor="middle" font-size="11" fill="#8FA69A">D1</text><text x="70.0" y="50" text-anchor="middle" font-size="11" fill="#C9DCD1">1.36×</text><rect x="112" y="109" width="60" height="111" fill="#5CE6A1"/><text x="142.0" y="236" text-anchor="middle" font-size="11" fill="#8FA69A">D2</text><text x="142.0" y="103" text-anchor="middle" font-size="11" fill="#C9DCD1">0.92×</text><rect x="184" y="113" width="60" height="107" fill="#5CE6A1"/><text x="214.0" y="236" text-anchor="middle" font-size="11" fill="#8FA69A">D3</text><text x="214.0" y="107" text-anchor="middle" font-size="11" fill="#C9DCD1">0.89×</text><rect x="256" y="118" width="60" height="102" fill="#5CE6A1"/><text x="286.0" y="236" text-anchor="middle" font-size="11" fill="#8FA69A">D4</text><text x="286.0" y="112" text-anchor="middle" font-size="11" fill="#C9DCD1">0.85×</text><rect x="328" y="110" width="60" height="110" fill="#5CE6A1"/><text x="358.0" y="236" text-anchor="middle" font-size="11" fill="#8FA69A">D5</text><text x="358.0" y="104" text-anchor="middle" font-size="11" fill="#C9DCD1">0.91×</text><rect x="400" y="114" width="60" height="106" fill="#5CE6A1"/><text x="430.0" y="236" text-anchor="middle" font-size="11" fill="#8FA69A">D6</text><text x="430.0" y="108" text-anchor="middle" font-size="11" fill="#C9DCD1">0.88×</text><rect x="472" y="112" width="60" height="108" fill="#5CE6A1"/><text x="502.0" y="236" text-anchor="middle" font-size="11" fill="#8FA69A">D7</text><text x="502.0" y="106" text-anchor="middle" font-size="11" fill="#C9DCD1">0.89×</text><rect x="544" y="111" width="60" height="109" fill="#5CE6A1"/><text x="574.0" y="236" text-anchor="middle" font-size="11" fill="#8FA69A">D8</text><text x="574.0" y="105" text-anchor="middle" font-size="11" fill="#C9DCD1">0.90×</text><rect x="616" y="113" width="60" height="107" fill="#5CE6A1"/><text x="646.0" y="236" text-anchor="middle" font-size="11" fill="#8FA69A">D9</text><text x="646.0" y="107" text-anchor="middle" font-size="11" fill="#C9DCD1">0.89×</text><rect x="688" y="40" width="60" height="180" fill="#5CE6A1"/><text x="718.0" y="236" text-anchor="middle" font-size="11" fill="#8FA69A">D10</text><text x="718.0" y="34" text-anchor="middle" font-size="11" fill="#C9DCD1">1.49×</text></svg>