<svg xmlns="http://www.w3.org/2000/svg" width="780" height="270" style="background:#0B100D;font-family:monospace"><text x="40" y="24" font-size="13" fill="#C9DCD1">Lift du taux de vente par décile de Score V (D1 = top 10 %) — cible ≥ 2×</text><rect x="40" y="40" width="60" height="180" fill="#FF8A50"/><text x="70.0" y="236" text-anchor="middle" font-size="11" fill="#8FA69A">D1</text><text x="70.0" y="34" text-anchor="middle" font-size="11" fill="#C9DCD1">1.41×</text><rect x="112" y="95" width="60" height="125" fill="#5CE6A1"/><text x="142.0" y="236" text-anchor="middle" font-size="11" fill="#8FA69A">D2</text><text x="142.0" y="89" text-anchor="middle" font-size="11" fill="#C9DCD1">0.98×</text><rect x="184" y="99" width="60" height="121" fill="#5CE6A1"/><text x="214.0" y="236" text-anchor="middle" font-size="11" fill="#8FA69A">D3</text><text x="214.0" y="93" text-anchor="middle" font-size="11" fill="#C9DCD1">0.95×</text><rect x="256" y="101" width="60" height="119" fill="#5CE6A1"/><text x="286.0" y="236" text-anchor="middle" font-size="11" fill="#8FA69A">D4</text><text x="286.0" y="95" text-anchor="middle" font-size="11" fill="#C9DCD1">0.93×</text><rect x="328" y="98" width="60" height="122" fill="#5CE6A1"/><text x="358.0" y="236" text-anchor="middle" font-size="11" fill="#8FA69A">D5</text><text x="358.0" y="92" text-anchor="middle" font-size="11" fill="#C9DCD1">0.96×</text><rect x="400" y="97" width="60" height="123" fill="#5CE6A1"/><text x="430.0" y="236" text-anchor="middle" font-size="11" fill="#8FA69A">D6</text><text x="430.0" y="91" text-anchor="middle" font-size="11" fill="#C9DCD1">0.96×</text><rect x="472" y="99" width="60" height="121" fill="#5CE6A1"/><text x="502.0" y="236" text-anchor="middle" font-size="11" fill="#8FA69A">D7</text><text x="502.0" y="93" text-anchor="middle" font-size="11" fill="#C9DCD1">0.95×</text><rect x="544" y="97" width="60" height="123" fill="#5CE6A1"/><text x="574.0" y="236" text-anchor="middle" font-size="11" fill="#8FA69A">D8</text><text x="574.0" y="91" text-anchor="middle" font-size="11" fill="#C9DCD1">0.97×</text><rect x="616" y="99" width="60" height="121" fill="#5CE6A1"/><text x="646.0" y="236" text-anchor="middle" font-size="11" fill="#8FA69A">D9</text><text x="646.0" y="93" text-anchor="middle" font-size="11" fill="#C9DCD1">0.95×</text><rect x="688" y="101" width="60" height="119" fill="#5CE6A1"/><text x="718.0" y="236" text-anchor="middle" font-size="11" fill="#8FA69A">D10</text><text x="718.0" y="95" text-anchor="middle" font-size="11" fill="#C9DCD1">0.94×</text></svg>